<?xml version="1.0" encoding="utf-8"?>
<!-- Generator: Adobe Illustrator 19.2.0, SVG Export Plug-In . SVG Version: 6.00 Build 0)  -->
<svg version="1.1" id="Layer_1" xmlns="http://www.w3.org/2000/svg" xmlns:xlink="http://www.w3.org/1999/xlink" x="0px" y="0px"
	 viewBox="0 0 400 400" style="enable-background:new 0 0 400 400;" xml:space="preserve">
<style type="text/css">
	.st0{fill:#333333;}
	.st1{fill-rule:evenodd;clip-rule:evenodd;fill:#333333;}
</style>
<path class="st0" d="M265,119.1H135.7c-8.9,0-16.2,7.3-16.2,16.2v129.4c0,8.9,7.3,16.2,16.2,16.2H265c8.9,0,16.2-7.3,16.2-16.2
	V135.3C281.2,126.4,274,119.1,265,119.1z M200.4,167.7c17.8,0,32.3,14.5,32.3,32.3c0,17.8-14.5,32.3-32.3,32.3S168,217.8,168,200
	C168,182.2,182.5,167.7,200.4,167.7z M265,260.7c0,2.4-1.6,4-4,4H139.7c-2.4,0-4-1.6-4-4v-68.8h17c-0.8,2.4-0.8,5.7-0.8,8.1
	c0,26.7,21.8,48.5,48.5,48.5s48.5-21.8,48.5-48.5c0-2.4,0-5.7-0.8-8.1h17V260.7z M265,161.2c0,2.2-1.8,4-4,4h-21.9c-2.2,0-4-1.8-4-4
	v-21.9c0-2.2,1.8-4,4-4H261c2.2,0,4,1.8,4,4V161.2z"/>
</svg>
