<?xml version="1.0" encoding="utf-8"?>
<!-- Generator: Adobe Illustrator 19.2.0, SVG Export Plug-In . SVG Version: 6.00 Build 0)  -->
<svg version="1.1" id="Layer_1" xmlns="http://www.w3.org/2000/svg" xmlns:xlink="http://www.w3.org/1999/xlink" x="0px" y="0px"
	 viewBox="0 0 400 400" style="enable-background:new 0 0 400 400;" xml:space="preserve">
<style type="text/css">
	.st0{fill:#333333;}
	.st1{fill-rule:evenodd;clip-rule:evenodd;fill:#333333;}
</style>
<g>
	<g>
		<path class="st1" d="M168.6,191.4v20.7H203c-1.4,8.9-10.4,26.1-34.3,26.1c-20.7,0-37.5-17.1-37.5-38.2c0-21.1,16.9-38.2,37.5-38.2
			c11.8,0,19.6,5,24.1,9.3l16.4-15.8c-10.5-9.9-24.2-15.8-40.5-15.8c-33.5,0-60.5,27.1-60.5,60.5c0,33.5,27.1,60.5,60.5,60.5
			c34.9,0,58.1-24.6,58.1-59.1c0-4-0.4-7-1-10H168.6L168.6,191.4L168.6,191.4z M168.6,191.4"/>
		<polygon class="st1" points="298.3,208.6 281,208.6 281,225.9 263.7,225.9 263.7,208.6 246.4,208.6 246.4,191.4 263.7,191.4 
			263.7,174.1 281,174.1 281,191.4 298.3,191.4 		"/>
	</g>
</g>
</svg>
