<?xml version="1.0" encoding="utf-8"?>
<!-- Generator: Adobe Illustrator 19.2.0, SVG Export Plug-In . SVG Version: 6.00 Build 0)  -->
<svg version="1.1" id="Layer_1" xmlns="http://www.w3.org/2000/svg" xmlns:xlink="http://www.w3.org/1999/xlink" x="0px" y="0px"
	 viewBox="0 0 400 400" style="enable-background:new 0 0 400 400;" xml:space="preserve">
<style type="text/css">
	.st0{fill:#333333;}
	.st1{fill-rule:evenodd;clip-rule:evenodd;fill:#333333;}
</style>
<g>
	<g id="Lozenge_2_">
		<g>
			<path class="st0" d="M293.2,156.6c0,0-1.9-13.1-7.6-18.9c-7.2-7.6-15.3-7.6-19.1-8.1c-26.6-1.9-66.5-1.9-66.5-1.9H200
				c0,0-39.9,0-66.5,1.9c-3.7,0.4-11.8,0.5-19.1,8.1c-5.7,5.8-7.6,18.9-7.6,18.9s-1.9,15.4-1.9,30.8v14.4c0,15.4,1.9,30.8,1.9,30.8
				s1.9,13.1,7.6,18.9c7.2,7.6,16.7,7.3,21,8.1c15.2,1.5,64.7,1.9,64.7,1.9s40-0.1,66.6-2c3.7-0.4,11.8-0.5,19.1-8.1
				c5.7-5.8,7.6-18.9,7.6-18.9s1.9-15.4,1.9-30.8v-14.4C295.1,172,293.2,156.6,293.2,156.6z M180.4,219.3l0-53.4l51.4,26.8
				L180.4,219.3z"/>
		</g>
	</g>
</g>
</svg>
