<?xml version="1.0" encoding="utf-8"?>
<!-- Generator: Adobe Illustrator 19.2.0, SVG Export Plug-In . SVG Version: 6.00 Build 0)  -->
<svg version="1.1" id="Layer_1" xmlns="http://www.w3.org/2000/svg" xmlns:xlink="http://www.w3.org/1999/xlink" x="0px" y="0px"
	 viewBox="0 0 400 400" style="enable-background:new 0 0 400 400;" xml:space="preserve">
<style type="text/css">
	.st0{fill:#333333;}
	.st1{fill-rule:evenodd;clip-rule:evenodd;fill:#333333;}
</style>
<g>
	<g>
		<path class="st0" d="M210.5,118.1c-47.1,0-70.8,33.8-70.8,61.9c0,17,6.4,32.2,20.3,37.9c2.3,0.9,4.3,0,5-2.5c0.5-1.7,1.5-6.1,2-8
			c0.7-2.5,0.4-3.4-1.4-5.5c-4-4.7-6.5-10.8-6.5-19.4c0-25,18.7-47.5,48.8-47.5c26.6,0,41.2,16.3,41.2,38
			c0,28.6-12.6,52.7-31.4,52.7c-10.4,0-18.1-8.6-15.6-19.1c3-12.6,8.7-26.1,8.7-35.2c0-8.1-4.4-14.9-13.4-14.9
			c-10.6,0-19.1,11-19.1,25.7c0,9.3,3.2,15.7,3.2,15.7s-10.9,46-12.7,54c-3.8,16-0.6,35.7-0.3,37.7c0.2,1.2,1.7,1.4,2.4,0.6
			c1-1.3,13.6-16.9,17.9-32.4c1.2-4.4,7-27.2,7-27.2c3.5,6.6,13.5,12.4,24.2,12.4c31.9,0,53.5-29.1,53.5-67.9
			C273.2,145.5,248.3,118.1,210.5,118.1z"/>
	</g>
</g>
</svg>
