<?xml version="1.0" encoding="utf-8"?>
<!-- Generator: Adobe Illustrator 19.2.0, SVG Export Plug-In . SVG Version: 6.00 Build 0)  -->
<svg version="1.1" id="Layer_1" xmlns="http://www.w3.org/2000/svg" xmlns:xlink="http://www.w3.org/1999/xlink" x="0px" y="0px"
	 viewBox="0 0 400 400" style="enable-background:new 0 0 400 400;" xml:space="preserve">
<style type="text/css">
	.st0{fill:#333333;}
	.st1{fill-rule:evenodd;clip-rule:evenodd;fill:#333333;}
</style>
<g>
	<path id="Facebook_10_" class="st0" d="M176,144.7c0,4.3,0,23.6,0,23.6h-17v28.8h17v79.2h35v-79.2h23.5c0,0,2.2-13.8,3.3-29
		c-3.1,0-26.6,0-26.6,0s0-16.8,0-19.7c0-2.9,3.8-6.9,7.6-6.9c3.8,0,11.7,0,19.1,0c0-3.9,0-17.5,0-30c-9.8,0-21,0-25.9,0
		C175.2,111.5,176,140.4,176,144.7z"/>
</g>
</svg>
