<?xml version="1.0" encoding="utf-8"?>
<!-- Generator: Adobe Illustrator 19.2.0, SVG Export Plug-In . SVG Version: 6.00 Build 0)  -->
<svg version="1.1" id="Layer_1" xmlns="http://www.w3.org/2000/svg" xmlns:xlink="http://www.w3.org/1999/xlink" x="0px" y="0px"
	 viewBox="0 0 400 400" style="enable-background:new 0 0 400 400;" xml:space="preserve">
<style type="text/css">
	.st0{fill:#333333;}
	.st1{fill-rule:evenodd;clip-rule:evenodd;fill:#333333;}
</style>
<g>
	<g>
		<g>
			<g>
				<path class="st0" d="M208.4,248.8c-2.6-1.5-4.3-3.5-5.3-6.1c-0.9-2.5-1.4-8.2-1.4-17.2v-39.4h36.5V162h-36.5v-38.8h-21.9
					c-1,7.9-2.8,14.5-5.4,19.6c-2.6,5.2-6.1,9.5-10.4,13.2c-4.3,3.6-9.5,6.5-15.5,8.4v21.7h17V240c0,7,0.7,12.4,2.2,16.1
					c1.5,3.7,4.1,7.2,7.9,10.5c3.8,3.3,8.4,5.8,13.8,7.6c5.4,1.8,11.6,2.7,18.6,2.7c6.2,0,11.9-0.6,17.3-1.9
					c5.3-1.2,11.3-3.4,17.8-6.5v-24.2c-7.7,5.1-15.4,7.6-23.2,7.6C215.7,251.8,211.8,250.8,208.4,248.8z"/>
			</g>
		</g>
	</g>
</g>
</svg>
