<?xml version="1.0" encoding="utf-8"?>
<!-- Generator: Adobe Illustrator 19.2.0, SVG Export Plug-In . SVG Version: 6.00 Build 0)  -->
<svg version="1.1" id="Layer_1" xmlns="http://www.w3.org/2000/svg" xmlns:xlink="http://www.w3.org/1999/xlink" x="0px" y="0px"
	 viewBox="0 0 400 400" style="enable-background:new 0 0 400 400;" xml:space="preserve">
<style type="text/css">
	.st0{fill:#333333;}
	.st1{fill-rule:evenodd;clip-rule:evenodd;fill:#333333;}
</style>
<path class="st0" d="M119.1,119.1c0,0,0,7.3,0,16.2v145.6h161.8V135.3c0-8.9,0-16.2,0-16.2H119.1z M200,167.7
	c17.8,0,32.3,14.5,32.3,32.3c0,17.8-14.5,32.3-32.3,32.3s-32.3-14.5-32.3-32.3C167.7,182.2,182.2,167.7,200,167.7z M264.7,260.7
	c0,2.2,0,4,0,4H135.3c0,0,0-1.8,0-4v-68.8h17c-0.8,2.4-0.8,5.7-0.8,8.1c0,26.7,21.8,48.5,48.5,48.5s48.5-21.8,48.5-48.5
	c0-2.4,0-5.7-0.8-8.1h17V260.7z M264.7,165.3h-30v-30h30V165.3z"/>
</svg>
