<?xml version="1.0" encoding="utf-8"?>
<!-- Generator: Adobe Illustrator 19.2.0, SVG Export Plug-In . SVG Version: 6.00 Build 0)  -->
<svg version="1.1" id="Layer_1" xmlns="http://www.w3.org/2000/svg" xmlns:xlink="http://www.w3.org/1999/xlink" x="0px" y="0px"
	 viewBox="0 0 400 400" style="enable-background:new 0 0 400 400;" xml:space="preserve">
<style type="text/css">
	.st0{fill:#333333;}
	.st1{fill-rule:evenodd;clip-rule:evenodd;fill:#333333;}
</style>
<g>
	<g>
		<path class="st0" d="M296.3,157c-6.4,2.8-13.2,4.7-20.4,5.6c7.3-4.4,13-11.4,15.6-19.7c-6.9,4.1-14.5,7-22.6,8.6
			c-6.5-6.9-15.7-11.2-25.9-11.2c-19.6,0-35.6,15.9-35.6,35.5c0,2.8,0.3,5.5,0.9,8.1c-29.5-1.5-55.7-15.6-73.3-37.1
			c-3.1,5.2-4.8,11.4-4.8,17.9c0,12.3,6.3,23.2,15.8,29.6c-5.8-0.2-11.3-1.8-16.1-4.4c0,0.1,0,0.3,0,0.4c0,17.2,12.3,31.6,28.5,34.9
			c-3,0.8-6.1,1.2-9.4,1.2c-2.3,0-4.5-0.2-6.7-0.6c4.5,14.1,17.7,24.4,33.2,24.7c-12.2,9.5-27.5,15.2-44.1,15.2
			c-2.9,0-5.7-0.2-8.5-0.5c15.7,10.1,34.4,16,54.5,16c65.4,0,101.1-54.2,101.1-101.1c0-1.5,0-3.1-0.1-4.6
			C285.5,170.4,291.5,164.1,296.3,157z"/>
	</g>
</g>
</svg>
